<?xml version="1.0" encoding="UTF-8"?>
<!DOCTYPE svg PUBLIC "-//W3C//DTD SVG 1.1//EN" "http://www.w3.org/Graphics/SVG/1.1/DTD/svg11.dtd">
<svg version="1.1" preserveAspectRatio="xMidYMid meet" xmlns="http://www.w3.org/2000/svg" xmlns:xlink="http://www.w3.org/1999/xlink" viewBox="-166.096 0.000 1332.192 1000.000" style="cursor: pointer;"><defs><g transform="matrix(1.519, 0.000, 0.000, 1.519, 28.653, 430.135)" fill="#fff" stroke="none" stroke-width="1" id="def-ad510063-9465-4ea6-b60b-676b665ae926"><g transform="translate(-12.467, -4.000)"><g><g><path fill-rule="evenodd" clip-rule="evenodd" d=" M81.032,38.303 l6.001 -5.233 l-5.086 -5.833 l-6.009,5.24 C77.82,34.245,79.528,36.19,81.032,38.303 z M53.363,26.075 v-7.966 h7.739 V6.5 H37.885 v11.609 h7.739 v7.966 c-17.411,1.927 -30.957,16.674 -30.957,34.599 c0,19.234,15.592,34.826,34.826,34.826 S84.32,79.908,84.32,60.674 C84.32,42.749,70.776,28.002,53.363,26.075 z M49.494,87.761 c-14.961,0 -27.087 -12.126 -27.087 -27.087 c0 -14.96,12.126 -27.087,27.087 -27.087 c14.96,0,27.087,12.126,27.087,27.087 C76.581,75.635,64.454,87.761,49.494,87.761 z M53.363,41.326 h-7.739 v23.217 h19.348 v-7.738 H53.363 V41.326 z"></path></g></g></g></g><path d="M174.649,487.128 C174.649,498.830,184.917,500.416,194.355,501.548 C202.585,502.530,210.437,503.663,210.437,512.572 C210.437,520.575,204.850,524.501,193.977,524.501 C185.521,524.501,180.161,520.953,176.914,513.327 C176.536,512.572,176.310,512.496,175.630,512.723 L174.196,513.251 C173.441,513.553,173.365,513.855,173.667,514.610 C177.291,523.595,183.407,527.823,193.977,527.823 C207.115,527.823,213.910,522.236,213.910,512.421 C213.910,500.793,204.321,499.208,195.110,498.151 C186.578,497.245,178.197,495.810,178.197,486.901 C178.197,479.653,183.860,475.425,193.600,475.425 C202.056,475.425,206.813,478.596,210.210,485.316 C210.588,485.995,210.814,485.995,211.418,485.769 L212.928,485.089 C213.532,484.862,213.759,484.485,213.381,483.805 C209.455,475.802,203.717,472.103,193.600,472.103 C181.671,472.103,174.649,477.916,174.649,487.128 Z M308.288,473.160 L287.978,473.160 C287.223,473.160,286.996,473.386,286.996,474.141 L286.996,525.785 C286.996,526.540,287.223,526.766,287.978,526.766 L289.563,526.766 C290.243,526.766,290.469,526.540,290.469,525.785 L290.469,505.928 L308.288,505.928 C318.556,505.928,324.974,499.812,324.974,489.619 C324.974,479.275,318.480,473.160,308.288,473.160 Z M307.986,502.681 L290.469,502.681 L290.469,476.406 L307.986,476.406 C316.215,476.406,321.350,481.314,321.350,489.619 C321.350,497.849,316.215,502.681,307.986,502.681 Z M395.493,490.752 L395.493,509.174 C395.493,520.726,402.590,527.823,415.878,527.823 C429.016,527.823,436.113,520.726,436.113,509.174 L436.113,490.752 C436.113,479.200,429.016,472.103,415.878,472.103 C402.590,472.103,395.493,479.200,395.493,490.752 Z M432.640,490.752 L432.640,509.174 C432.640,518.838,426.751,524.577,415.878,524.577 C404.855,524.577,398.966,518.838,398.966,509.174 L398.966,490.752 C398.966,481.087,404.855,475.349,415.878,475.349 C426.751,475.349,432.640,481.087,432.640,490.752 Z M532.982,473.160 L511.313,473.160 C510.558,473.160,510.331,473.386,510.331,474.141 L510.331,525.785 C510.331,526.540,510.558,526.766,511.313,526.766 L512.898,526.766 C513.578,526.766,513.804,526.540,513.804,525.785 L513.804,503.210 L526.262,503.210 C532.605,503.210,535.474,505.399,537.965,510.382 L545.817,525.936 C546.119,526.615,546.497,526.766,547.705,526.766 L549.139,526.766 C549.895,526.766,550.046,526.313,549.668,525.785 L541.212,509.023 C539.551,505.928,537.890,504.040,535.021,502.832 C543.175,502.152,548.309,496.943,548.309,488.260 C548.309,478.671,542.495,473.160,532.982,473.160 Z M544.685,488.260 C544.685,495.810,540.155,499.963,532.605,499.963 L513.804,499.963 L513.804,476.406 L532.605,476.406 C540.306,476.406,544.685,480.710,544.685,488.260 Z M654.087,473.160 L617.846,473.160 C617.091,473.160,616.865,473.386,616.865,474.141 L616.865,475.500 C616.865,476.180,617.091,476.406,617.846,476.406 L634.230,476.406 L634.230,525.785 C634.230,526.540,634.457,526.766,635.212,526.766 L636.797,526.766 C637.477,526.766,637.703,526.540,637.703,525.785 L637.703,476.406 L654.087,476.406 C654.842,476.406,655.069,476.180,655.069,475.500 L655.069,474.141 C655.069,473.386,654.842,473.160,654.087,473.160 Z M755.562,473.160 L753.901,473.160 C753.222,473.160,752.995,473.386,752.995,474.066 L752.995,510.382 C752.995,519.216,748.012,524.577,738.650,524.577 C730.043,524.577,725.966,519.971,724.455,511.817 C724.229,511.137,723.851,510.986,723.247,511.213 L721.737,511.741 C721.058,511.968,720.907,512.345,721.133,513.025 C722.945,522.312,728.306,527.899,738.650,527.899 C750.202,527.899,756.468,521.104,756.468,510.382 L756.468,474.066 C756.468,473.386,756.242,473.160,755.562,473.160 Z M863.681,473.160 L832.877,473.160 C832.121,473.160,831.895,473.386,831.895,474.141 L831.895,525.785 C831.895,526.540,832.121,526.766,832.877,526.766 L864.738,526.766 C865.418,526.766,865.720,526.540,865.720,525.785 L865.720,524.426 C865.720,523.746,865.418,523.520,864.738,523.520 L835.368,523.520 L835.368,501.246 L860.435,501.246 C861.114,501.246,861.341,501.020,861.341,500.265 L861.341,498.906 C861.341,498.226,861.114,498.000,860.435,498.000 L835.368,498.000 L835.368,476.406 L863.681,476.406 C864.436,476.406,864.663,476.180,864.663,475.500 L864.663,474.141 C864.663,473.386,864.436,473.160,863.681,473.160 Z M970.366,473.160 L934.125,473.160 C933.370,473.160,933.143,473.386,933.143,474.141 L933.143,475.500 C933.143,476.180,933.370,476.406,934.125,476.406 L950.509,476.406 L950.509,525.785 C950.509,526.540,950.735,526.766,951.490,526.766 L953.076,526.766 C953.755,526.766,953.982,526.540,953.982,525.785 L953.982,476.406 L970.366,476.406 C971.121,476.406,971.347,476.180,971.347,475.500 L971.347,474.141 C971.347,473.386,971.121,473.160,970.366,473.160 Z" id="def-4fb26a0d-fad8-4a7f-ac76-06a006360fe6"></path><linearGradient id="gradient-230070fa-4690-405c-bbc6-0182dff70522" gradientUnits="objectBoundingBox" x1="0.090" y1="0.213" x2="0.910" y2="0.787"><stop offset="0.000" stop-color="#fc1588" stop-opacity="1"></stop><stop offset="0.250" stop-color="#fe137c" stop-opacity="1"></stop><stop offset="0.500" stop-color="#ff1670" stop-opacity="1"></stop><stop offset="0.750" stop-color="#ff1c64" stop-opacity="1"></stop><stop offset="1.000" stop-color="#fe2458" stop-opacity="1"></stop></linearGradient><mask id="mask-214c4dd7-4ccd-4bb1-9b7f-f10f2f45ef5c" x="21.666" y="423.148" width="962.248" height="153.704" maskUnits="userSpaceOnUse" stroke-width="0"><rect x="28.653" y="430.135" width="948.275" height="139.731" fill="#000"></rect><use xlink:href="#def-ad510063-9465-4ea6-b60b-676b665ae926" fill="#fff" stroke="#fff"></use><use xlink:href="#def-4fb26a0d-fad8-4a7f-ac76-06a006360fe6" fill="#fff" stroke="#fff"></use></mask></defs><rect id="background-shape-cc93b3a7-4390-45d3-a2cd-36122745ade6" x="-166.096" y="0.000" width="1332.192" height="1000.000" fill="#fdffff"></rect><g mask="url(#mask-214c4dd7-4ccd-4bb1-9b7f-f10f2f45ef5c)"><rect x="28.653" y="430.135" width="948.275" height="139.731" fill="url(#gradient-230070fa-4690-405c-bbc6-0182dff70522)"></rect></g><g opacity="0"><rect fill="none" stroke="#fff" stroke-dasharray="20.547948586118252" stroke-dashoffset="0" stroke-width="3.4246580976863754" x="-156.096" y="10" width="1312.192" height="980"></rect><rect fill="none" stroke="#000" stroke-dasharray="20.547948586118252" stroke-dashoffset="20.547948586118252" stroke-width="3.4246580976863754" x="-156.096" y="10" width="1312.192" height="980"></rect></g><g opacity="0"><rect fill="none" stroke="#fff" stroke-dasharray="10.273974293059126" stroke-dashoffset="0" stroke-width="3.4246580976863754"></rect><rect fill="none" stroke="#000" stroke-dasharray="10.273974293059126" stroke-dashoffset="10.273974293059126" stroke-width="3.4246580976863754"></rect></g></svg>
